<svg  viewBox="0 0 335 369" fill="currentColor" xmlns="http://www.w3.org/2000/svg">
<path d="M39.5 255.5C25 252.5 3.5 239 1 228C4.76909 213.627 8.21754 205.867 16.5 192.5L19 202.5C63 132.5 28.1846 120.584 54.5 97C83.2577 71.2271 143 2 143 2C140 55.5 83 63 76.5 103C128.117 55.3538 119.137 78.6501 166.926 3.68629C163.297 78.2668 116.278 62.9263 86.5 120L106.5 115.5L101 138L130.5 132.5C122.924 188.55 36.968 222.933 39.5 255.5Z" fill="black"/>
<path d="M1 228C3.5 239 25 252.5 39.5 255.5C36.968 222.933 122.924 188.55 130.5 132.5L101 138L106.5 115.5L86.5 120C116.5 62.5 164 78.5 167 2M1 228C1 228 15.8826 207.459 19 202.5M1 228C4.76909 213.627 8.21754 205.867 16.5 192.5L19 202.5M168 2C119 79 128.5 55 76.5 103C83 63 140 55.5 143 2C143 2 83.2577 71.2271 54.5 97C28.1846 120.584 63 132.5 19 202.5" stroke="black"/>
<path d="M206.5 130.5C255.5 139 153 228 130.5 218C124 210.5 141.5 204.5 153 183C175.5 136 133.5 165 142 153C158 129 191.667 128 206.5 130.5Z" />
<path d="M186 104.5C156 96.9 129.833 100 120.5 102.5C165.5 84.5 201 94 219.5 111C234.3 124.6 230.333 128 226.5 128C215.5 126.5 208 110.073 186 104.5Z" />
<path d="M186.5 22C189.592 23.059 192.563 24.2627 195.413 25.6007C543.438 170.635 140.533 537.786 31 276.5C55.5 317 137 276.5 106.5 216C248.863 276.735 293.489 71.6443 195.413 25.6007C192.495 24.3847 189.524 23.1843 186.5 22Z" fill="black"/>
<path d="M186.5 22C296 59.5 253 278.5 106.5 216C137 276.5 55.5 317 31 276.5C141.452 539.977 550.215 164.434 186.5 22Z"  />
</svg>
